<?xml version="1.0" standalone="no"?>
<!DOCTYPE svg PUBLIC "-//W3C//DTD SVG 20010904//EN"
 "http://www.w3.org/TR/2001/REC-SVG-20010904/DTD/svg10.dtd">
<svg version="1.0" xmlns="http://www.w3.org/2000/svg"
 width="633.000000pt" height="101.000000pt" viewBox="0 0 633.000000 101.000000"
 preserveAspectRatio="xMidYMid meet">

<g transform="translate(0.000000,101.000000) scale(0.100000,-0.100000)"
fill="#000000" stroke="none">
<path d="M0 505 l0 -505 3165 0 3165 0 0 505 0 505 -3165 0 -3165 0 0 -505z
m818 328 l3 -63 159 0 158 0 26 -31 26 -31 -2 -221 -3 -222 -65 0 -65 0 -3
188 -2 187 -115 0 -115 0 -2 -187 -3 -188 -65 0 -65 0 -3 305 c-1 168 0 311 3
318 3 9 23 12 67 10 l63 -3 3 -62z m2770 0 l3 -62 47 -3 47 -3 0 -60 0 -60
-47 -3 -48 -3 0 -124 0 -124 48 -3 47 -3 0 -60 0 -60 -85 -3 c-84 -3 -86 -2
-115 28 l-30 31 -3 276 c-2 152 -1 282 2 290 4 10 22 13 68 11 l63 -3 3 -62z
m1730 0 l3 -62 47 -3 47 -3 0 -60 0 -60 -47 -3 -48 -3 0 -124 0 -124 48 -3 47
-3 0 -60 0 -60 -85 -3 c-84 -3 -86 -2 -115 28 l-30 31 -3 276 c-2 152 -1 282
2 290 4 10 22 13 68 11 l63 -3 3 -62z m887 -253 l0 -315 -65 0 -65 0 -3 305
c-1 168 0 311 3 318 3 9 23 12 67 10 l63 -3 0 -315z m-5624 161 l29 -29 -2
-202 -3 -202 -28 -24 -29 -24 -221 2 -222 3 -3 240 c-1 132 0 245 2 252 4 10
57 13 226 13 l222 0 29 -29z m1158 -2 l31 -31 0 -193 0 -193 -26 -31 -26 -31
-203 0 -203 0 -26 31 -26 31 0 193 0 193 31 31 31 31 193 0 193 0 31 -31z
m600 0 l31 -31 0 -193 0 -193 -26 -31 -26 -31 -203 0 -203 0 -26 31 -26 31 0
193 0 193 31 31 31 31 193 0 193 0 31 -31z m757 16 c40 -27 45 -59 42 -280
l-3 -210 -65 0 -65 0 -3 188 -2 187 -70 0 -70 0 -2 -187 -3 -188 -65 0 -65 0
-3 188 -2 187 -70 0 -70 0 -2 -187 -3 -188 -65 0 -65 0 -3 240 c-1 132 0 245
2 252 8 20 624 19 652 -2z m259 -240 l0 -250 -65 0 -65 0 -3 240 c-1 132 0
246 3 253 3 9 23 12 67 10 l63 -3 0 -250z m1146 226 l29 -29 0 -191 0 -190
-31 -36 -31 -35 -154 0 -153 0 -3 -77 -3 -78 -65 0 -65 0 -3 320 c-1 176 0
325 3 332 3 10 57 13 225 13 l222 0 29 -29z m590 0 l29 -30 -2 -223 -3 -223
-223 -3 -223 -2 -30 29 c-28 29 -29 32 -29 131 0 99 1 102 29 131 l29 29 156
0 156 0 0 30 0 30 -182 2 -183 3 -3 49 c-5 81 -19 76 228 76 l222 0 29 -29z
m870 0 c28 -29 29 -32 29 -131 0 -99 -1 -102 -29 -131 l-29 -29 -156 0 -156 0
0 -30 0 -30 173 -2 172 -3 0 -60 0 -60 -213 -3 -213 -2 -30 29 -29 29 0 197 0
197 29 29 29 29 197 0 197 0 29 -29z"/>
<path d="M710 870 c0 -5 18 -10 40 -10 22 0 40 5 40 10 0 6 -18 10 -40 10 -22
0 -40 -4 -40 -10z"/>
<path d="M3480 870 c0 -5 20 -10 45 -10 25 0 45 5 45 10 0 6 -20 10 -45 10
-25 0 -45 -4 -45 -10z"/>
<path d="M5210 870 c0 -5 20 -10 45 -10 25 0 45 5 45 10 0 6 -20 10 -45 10
-25 0 -45 -4 -45 -10z"/>
<path d="M6100 870 c0 -5 18 -10 40 -10 22 0 40 5 40 10 0 6 -18 10 -40 10
-22 0 -40 -4 -40 -10z"/>
<path d="M240 610 l0 -30 115 0 115 0 0 30 0 30 -115 0 -115 0 0 -30z"/>
<path d="M240 420 l0 -30 115 0 115 0 0 30 0 30 -115 0 -115 0 0 -30z"/>
<path d="M1400 515 l0 -125 115 0 115 0 0 125 0 125 -115 0 -115 0 0 -125z"/>
<path d="M2000 515 l0 -125 115 0 115 0 0 125 0 125 -115 0 -115 0 0 -125z"/>
<path d="M4160 515 l0 -125 115 0 115 0 0 125 0 125 -115 0 -115 0 0 -125z"/>
<path d="M4750 420 l0 -30 115 0 115 0 0 30 0 30 -115 0 -115 0 0 -30z"/>
<path d="M5620 610 l0 -30 115 0 115 0 0 30 0 30 -115 0 -115 0 0 -30z"/>
</g>
</svg>
